<mxfile host="app.diagrams.net" modified="2024-05-18T14:26:00.711Z" agent="Mozilla/5.0 (Windows NT 10.0; Win64; x64) AppleWebKit/537.36 (KHTML, like Gecko) Chrome/124.0.0.0 Safari/537.36 Edg/124.0.0.0" etag="j4b9Mcds_EDHlrPHRb-y" version="24.4.4" type="github">
  <diagram name="第 1 页" id="Fo4ZzCWYU_xrEP7kY4Re">
    <mxGraphModel dx="874" dy="824" grid="1" gridSize="10" guides="1" tooltips="1" connect="1" arrows="1" fold="1" page="1" pageScale="1" pageWidth="827" pageHeight="1169" math="0" shadow="0">
      <root>
        <mxCell id="0" />
        <mxCell id="1" parent="0" />
        <mxCell id="VXROkUdGd-5QKrdc-_7k-2" value="" style="endArrow=classic;html=1;rounded=0;exitX=0.5;exitY=1;exitDx=0;exitDy=0;" edge="1" parent="1">
          <mxGeometry width="50" height="50" relative="1" as="geometry">
            <mxPoint x="399.5" y="50" as="sourcePoint" />
            <mxPoint x="399.5" y="89.99999999999977" as="targetPoint" />
          </mxGeometry>
        </mxCell>
        <mxCell id="VXROkUdGd-5QKrdc-_7k-3" value="导入RPi.GPIO库和时间模块" style="rounded=1;whiteSpace=wrap;html=1;fontSize=18;" vertex="1" parent="1">
          <mxGeometry x="340" y="10" width="120" height="40" as="geometry" />
        </mxCell>
        <mxCell id="VXROkUdGd-5QKrdc-_7k-4" value="设置为BCM编码" style="rounded=0;whiteSpace=wrap;html=1;fontSize=18;movable=1;resizable=1;rotatable=1;deletable=1;editable=1;locked=0;connectable=1;" vertex="1" parent="1">
          <mxGeometry x="320" y="90" width="160" height="40" as="geometry" />
        </mxCell>
        <mxCell id="VXROkUdGd-5QKrdc-_7k-5" value="" style="endArrow=classic;html=1;rounded=0;exitX=0.5;exitY=1;exitDx=0;exitDy=0;" edge="1" parent="1">
          <mxGeometry width="50" height="50" relative="1" as="geometry">
            <mxPoint x="399.5" y="130" as="sourcePoint" />
            <mxPoint x="399.5" y="169.99999999999977" as="targetPoint" />
          </mxGeometry>
        </mxCell>
        <mxCell id="VXROkUdGd-5QKrdc-_7k-7" value="设置GPIO引脚20为输入引脚" style="rounded=0;whiteSpace=wrap;html=1;fontSize=18;movable=1;resizable=1;rotatable=1;deletable=1;editable=1;locked=0;connectable=1;" vertex="1" parent="1">
          <mxGeometry x="320" y="170" width="160" height="40" as="geometry" />
        </mxCell>
        <mxCell id="VXROkUdGd-5QKrdc-_7k-8" value="" style="endArrow=classic;html=1;rounded=0;exitX=0.5;exitY=1;exitDx=0;exitDy=0;" edge="1" parent="1">
          <mxGeometry width="50" height="50" relative="1" as="geometry">
            <mxPoint x="399.5" y="210" as="sourcePoint" />
            <mxPoint x="399.5" y="249.99999999999977" as="targetPoint" />
          </mxGeometry>
        </mxCell>
        <mxCell id="VXROkUdGd-5QKrdc-_7k-9" value="设置GPIO引脚21为输出引脚" style="rounded=0;whiteSpace=wrap;html=1;fontSize=18;movable=1;resizable=1;rotatable=1;deletable=1;editable=1;locked=0;connectable=1;" vertex="1" parent="1">
          <mxGeometry x="320" y="250" width="160" height="40" as="geometry" />
        </mxCell>
        <mxCell id="VXROkUdGd-5QKrdc-_7k-10" value="" style="endArrow=classic;html=1;rounded=0;exitX=0.5;exitY=1;exitDx=0;exitDy=0;" edge="1" parent="1">
          <mxGeometry width="50" height="50" relative="1" as="geometry">
            <mxPoint x="399.5" y="290" as="sourcePoint" />
            <mxPoint x="399.5" y="329.9999999999998" as="targetPoint" />
          </mxGeometry>
        </mxCell>
        <mxCell id="VXROkUdGd-5QKrdc-_7k-12" value="&lt;font style=&quot;font-size: 18px;&quot;&gt;检测到活体？&lt;/font&gt;" style="rhombus;whiteSpace=wrap;html=1;" vertex="1" parent="1">
          <mxGeometry x="320" y="330" width="160" height="80" as="geometry" />
        </mxCell>
        <mxCell id="VXROkUdGd-5QKrdc-_7k-17" value="已检测到活体，请注意" style="rounded=1;whiteSpace=wrap;html=1;fontSize=18;" vertex="1" parent="1">
          <mxGeometry x="340" y="450" width="120" height="40" as="geometry" />
        </mxCell>
        <mxCell id="VXROkUdGd-5QKrdc-_7k-22" value="正常" style="rounded=1;whiteSpace=wrap;html=1;fontSize=18;" vertex="1" parent="1">
          <mxGeometry x="500" y="450" width="120" height="40" as="geometry" />
        </mxCell>
        <mxCell id="VXROkUdGd-5QKrdc-_7k-24" value="" style="endArrow=classic;html=1;rounded=0;exitX=0.5;exitY=1;exitDx=0;exitDy=0;" edge="1" parent="1">
          <mxGeometry width="50" height="50" relative="1" as="geometry">
            <mxPoint x="399.29" y="490" as="sourcePoint" />
            <mxPoint x="399.29" y="529.9999999999998" as="targetPoint" />
          </mxGeometry>
        </mxCell>
        <mxCell id="VXROkUdGd-5QKrdc-_7k-26" value="控制继电器高电平输出状态" style="rounded=0;whiteSpace=wrap;html=1;fontSize=18;movable=1;resizable=1;rotatable=1;deletable=1;editable=1;locked=0;connectable=1;" vertex="1" parent="1">
          <mxGeometry x="340" y="530" width="120" height="40" as="geometry" />
        </mxCell>
        <mxCell id="VXROkUdGd-5QKrdc-_7k-27" value="" style="endArrow=classic;html=1;rounded=0;exitX=0.5;exitY=1;exitDx=0;exitDy=0;" edge="1" parent="1">
          <mxGeometry width="50" height="50" relative="1" as="geometry">
            <mxPoint x="399.29" y="570" as="sourcePoint" />
            <mxPoint x="399.29" y="609.9999999999998" as="targetPoint" />
          </mxGeometry>
        </mxCell>
        <mxCell id="VXROkUdGd-5QKrdc-_7k-28" value="LED灯常亮" style="rounded=1;whiteSpace=wrap;html=1;fontSize=18;" vertex="1" parent="1">
          <mxGeometry x="340" y="610" width="120" height="40" as="geometry" />
        </mxCell>
        <mxCell id="VXROkUdGd-5QKrdc-_7k-29" value="" style="endArrow=classic;html=1;rounded=0;exitX=0.5;exitY=1;exitDx=0;exitDy=0;" edge="1" parent="1">
          <mxGeometry width="50" height="50" relative="1" as="geometry">
            <mxPoint x="559.29" y="490" as="sourcePoint" />
            <mxPoint x="559.29" y="529.9999999999998" as="targetPoint" />
          </mxGeometry>
        </mxCell>
        <mxCell id="VXROkUdGd-5QKrdc-_7k-30" value="控制继电器低电平输出状态" style="rounded=0;whiteSpace=wrap;html=1;fontSize=18;movable=1;resizable=1;rotatable=1;deletable=1;editable=1;locked=0;connectable=1;" vertex="1" parent="1">
          <mxGeometry x="500" y="530" width="120" height="40" as="geometry" />
        </mxCell>
        <mxCell id="VXROkUdGd-5QKrdc-_7k-31" value="" style="endArrow=classic;html=1;rounded=0;exitX=0.5;exitY=1;exitDx=0;exitDy=0;" edge="1" parent="1">
          <mxGeometry width="50" height="50" relative="1" as="geometry">
            <mxPoint x="559.29" y="570" as="sourcePoint" />
            <mxPoint x="559.29" y="609.9999999999998" as="targetPoint" />
          </mxGeometry>
        </mxCell>
        <mxCell id="VXROkUdGd-5QKrdc-_7k-32" value="LED灯熄灭" style="rounded=1;whiteSpace=wrap;html=1;fontSize=18;" vertex="1" parent="1">
          <mxGeometry x="500" y="610" width="120" height="40" as="geometry" />
        </mxCell>
        <mxCell id="VXROkUdGd-5QKrdc-_7k-41" value="" style="endArrow=classic;html=1;rounded=0;exitX=0.5;exitY=1;exitDx=0;exitDy=0;" edge="1" parent="1">
          <mxGeometry width="50" height="50" relative="1" as="geometry">
            <mxPoint x="399.29" y="650" as="sourcePoint" />
            <mxPoint x="399.29" y="689.9999999999998" as="targetPoint" />
          </mxGeometry>
        </mxCell>
        <mxCell id="VXROkUdGd-5QKrdc-_7k-48" value="" style="endArrow=classic;html=1;rounded=0;exitX=0.5;exitY=1;exitDx=0;exitDy=0;" edge="1" parent="1">
          <mxGeometry width="50" height="50" relative="1" as="geometry">
            <mxPoint x="399.29" y="410" as="sourcePoint" />
            <mxPoint x="399.29" y="449.9999999999998" as="targetPoint" />
          </mxGeometry>
        </mxCell>
        <mxCell id="VXROkUdGd-5QKrdc-_7k-49" value="&lt;font data-sider-select-id=&quot;add029f7-7a63-4094-9433-f4001f09afc7&quot; style=&quot;font-size: 18px;&quot;&gt;是&lt;/font&gt;" style="edgeLabel;html=1;align=center;verticalAlign=middle;resizable=0;points=[];" vertex="1" connectable="0" parent="VXROkUdGd-5QKrdc-_7k-48">
          <mxGeometry x="-0.1857" y="-1" relative="1" as="geometry">
            <mxPoint y="1" as="offset" />
          </mxGeometry>
        </mxCell>
        <mxCell id="VXROkUdGd-5QKrdc-_7k-50" value="" style="edgeStyle=segmentEdgeStyle;endArrow=classic;html=1;curved=0;rounded=0;endSize=8;startSize=8;entryX=0.5;entryY=0;entryDx=0;entryDy=0;" edge="1" parent="1" target="VXROkUdGd-5QKrdc-_7k-22">
          <mxGeometry width="50" height="50" relative="1" as="geometry">
            <mxPoint x="480" y="370" as="sourcePoint" />
            <mxPoint x="530" y="320" as="targetPoint" />
          </mxGeometry>
        </mxCell>
        <mxCell id="VXROkUdGd-5QKrdc-_7k-51" value="&lt;font data-sider-select-id=&quot;de97d886-8452-4a96-bcf5-459238432253&quot; style=&quot;font-size: 18px;&quot;&gt;否&lt;/font&gt;" style="edgeLabel;html=1;align=center;verticalAlign=middle;resizable=0;points=[];" vertex="1" connectable="0" parent="VXROkUdGd-5QKrdc-_7k-50">
          <mxGeometry x="0.6893" y="-1" relative="1" as="geometry">
            <mxPoint y="-1" as="offset" />
          </mxGeometry>
        </mxCell>
        <mxCell id="VXROkUdGd-5QKrdc-_7k-52" value="" style="shape=partialRectangle;whiteSpace=wrap;html=1;top=0;left=0;fillColor=none;" vertex="1" parent="1">
          <mxGeometry x="400" y="650" width="160" height="20" as="geometry" />
        </mxCell>
        <mxCell id="VXROkUdGd-5QKrdc-_7k-53" value="循环重新开始之前暂停1秒钟" style="rounded=0;whiteSpace=wrap;html=1;fontSize=18;movable=1;resizable=1;rotatable=1;deletable=1;editable=1;locked=0;connectable=1;" vertex="1" parent="1">
          <mxGeometry x="275" y="690" width="250" height="40" as="geometry" />
        </mxCell>
        <mxCell id="VXROkUdGd-5QKrdc-_7k-54" value="" style="endArrow=classic;html=1;rounded=0;exitX=0.5;exitY=1;exitDx=0;exitDy=0;" edge="1" parent="1">
          <mxGeometry width="50" height="50" relative="1" as="geometry">
            <mxPoint x="400" y="730" as="sourcePoint" />
            <mxPoint x="400" y="769.9999999999998" as="targetPoint" />
          </mxGeometry>
        </mxCell>
        <mxCell id="VXROkUdGd-5QKrdc-_7k-55" value="结束" style="rounded=1;whiteSpace=wrap;html=1;fontSize=18;" vertex="1" parent="1">
          <mxGeometry x="340" y="770" width="120" height="40" as="geometry" />
        </mxCell>
        <mxCell id="VXROkUdGd-5QKrdc-_7k-56" value="" style="edgeStyle=elbowEdgeStyle;elbow=horizontal;endArrow=classic;html=1;curved=0;rounded=0;endSize=8;startSize=8;entryX=0;entryY=0.5;entryDx=0;entryDy=0;" edge="1" parent="1" target="VXROkUdGd-5QKrdc-_7k-12">
          <mxGeometry width="50" height="50" relative="1" as="geometry">
            <mxPoint x="400" y="750" as="sourcePoint" />
            <mxPoint x="120" y="460.0000000000002" as="targetPoint" />
            <Array as="points">
              <mxPoint x="210" y="730.0000000000002" />
            </Array>
          </mxGeometry>
        </mxCell>
        <mxCell id="VXROkUdGd-5QKrdc-_7k-57" value="&lt;font data-sider-select-id=&quot;d653a58a-b4b5-4e57-920d-9e689b95aa5b&quot; style=&quot;font-size: 18px;&quot;&gt;N&lt;/font&gt;" style="edgeLabel;html=1;align=center;verticalAlign=middle;resizable=0;points=[];" vertex="1" connectable="0" parent="VXROkUdGd-5QKrdc-_7k-56">
          <mxGeometry x="0.1655" y="1" relative="1" as="geometry">
            <mxPoint y="-1" as="offset" />
          </mxGeometry>
        </mxCell>
      </root>
    </mxGraphModel>
  </diagram>
</mxfile>
